<svg width="51" height="79" viewBox="0 0 51 79" fill="none"
    xmlns="http://www.w3.org/2000/svg">
    <path d="M20.1721 50.9139C21.0143 49.8212 20.9597 49.7854 21.7469 48.6573" stroke="black" stroke-width="1.8186" stroke-linecap="round"/>
    <path d="M21.7468 48.6573C24.0159 44.7238 24.1643 44.8192 26.4721 40.9095" stroke="black" stroke-width="1.18184" stroke-linecap="round"/>
    <path d="M26.4722 40.9095C30.1465 35.3916 30.0606 35.337 33.8366 29.8838" stroke="black" stroke-width="0.87221" stroke-linecap="round"/>
    <path d="M33.8367 29.8838C35.8936 26.9058 35.8507 26.8775 37.8806 23.8812" stroke="black" stroke-width="1.03432" stroke-linecap="round"/>
    <path d="M37.8804 23.8812C41.956 18.2438 41.6826 18.0937 45.4148 12.2596" stroke="black" stroke-width="0.827203" stroke-linecap="round"/>
    <path d="M45.4148 12.2595C48.4682 7.98225 47.7876 8.15478 49.5441 3.70288" stroke="black" stroke-width="0.941803" stroke-linecap="round"/>
    <path d="M49.5441 3.70289C49.3979 0.935407 49.8838 2.35228 48.2456 1" stroke="black" stroke-width="1.33061" stroke-linecap="round"/>
    <path d="M48.2458 1C44.434 1.89596 45.4075 1.15877 41.5627 4.15004" stroke="black" stroke-width="1.16975" stroke-linecap="round"/>
    <path d="M41.5626 4.15005C35.3463 9.09244 35.4734 8.93075 30.3247 15.0696" stroke="black" stroke-width="0.822619" stroke-linecap="round"/>
    <path d="M30.3248 15.0695C22.9417 23.4537 23.2567 23.4816 17.3838 32.9276" stroke="black" stroke-width="0.627591" stroke-linecap="round"/>
    <path d="M17.3839 32.9276C10.9442 44.4613 10.7671 44.2067 5.97559 56.5756" stroke="black" stroke-width="0.512157" stroke-linecap="round"/>
    <path d="M5.97532 56.5756C2.12392 65.3673 2.51523 65.0122 0.526611 74.0293" stroke="black" stroke-width="0.587168" stroke-linecap="round"/>
    <path d="M0.526611 74.0293C0.854992 78.3012 0.186978 75.8713 2.10184 77.584" stroke="black" stroke-width="1.0164" stroke-linecap="round"/>
    <path d="M2.10181 77.584C7.56593 72.6554 6.79332 74.8853 12.4033 67.1971" stroke="black" stroke-width="0.800533" stroke-linecap="round"/>
    <path d="M12.4036 67.1971C14.7943 64.0283 15.0264 64.2371 17.0221 60.7474" stroke="black" stroke-width="0.972224" stroke-linecap="round"/>
    <path d="M17.022 60.7474C21.5035 54.4173 21.3709 54.3435 25.557 47.8272" stroke="black" stroke-width="0.768861" stroke-linecap="round"/>
    <path d="M25.5571 47.8272C28.5784 43.0473 28.4955 43.0507 31.0058 38.015" stroke="black" stroke-width="0.839288" stroke-linecap="round"/>
    <path d="M31.0059 38.0149C32.5673 34.4198 31.9306 36.098 32.2615 33.9281" stroke="black" stroke-width="1.17975" stroke-linecap="round"/>
    <path d="M32.2613 33.9281C30.947 34.9803 32.0246 33.5472 29.9202 36.2693" stroke="black" stroke-width="1.42604" stroke-linecap="round"/>
    <path d="M29.9201 36.2693C28.5245 38.1183 28.4886 38.0666 27.3447 40.1006" stroke="black" stroke-width="1.39729" stroke-linecap="round"/>
    <path d="M27.3446 40.1006C23.9254 45.121 24.2679 45.2701 21.4062 50.573" stroke="black" stroke-width="0.979725" stroke-linecap="round"/>
    <path d="M21.4065 50.573C17.5218 58.9463 17.5826 58.85 14.6597 67.5588" stroke="black" stroke-width="0.727189" stroke-linecap="round"/>
    <path d="M14.6596 67.5588C13.2765 71.9444 13.967 69.642 14.2975 71.9649" stroke="black" stroke-width="1.09974" stroke-linecap="round"/>
    <path d="M14.2976 71.9649C17.5514 70.2184 15.9478 71.9978 20.0018 67.6651" stroke="black" stroke-width="1.36728" stroke-linecap="round"/>
    <path d="M20.0017 67.6651C23.0697 63.7474 23.4151 64.1096 26.0255 59.7473" stroke="black" stroke-width="1.03765" stroke-linecap="round"/>
    <path d="M26.0254 59.7473C28.9696 56.1567 28.7629 56.0421 31.3887 52.2545" stroke="black" stroke-width="0.999728" stroke-linecap="round"/>
    <path d="M31.3887 52.2545C33.949 47.6559 32.9285 49.7712 33.9428 46.9758" stroke="black" stroke-width="1.161" stroke-linecap="round"/>
    <path d="M33.9428 46.9758C32.4218 48.3152 33.9386 46.5174 31.3674 49.9771" stroke="black" stroke-width="1.54897" stroke-linecap="round"/>
    <path d="M31.3674 49.9771C29.0479 53.6218 29.08 53.5834 27.2598 57.5119" stroke="black" stroke-width="1.14058" stroke-linecap="round"/>
    <path d="M27.2599 57.5119C25.4055 61.7363 25.3446 61.6784 23.9607 66.0903" stroke="black" stroke-width="1.02765" stroke-linecap="round"/>
    <path d="M23.9604 66.0902C21.7318 70.6784 23.0532 68.8244 22.5557 71.6881" stroke="black" stroke-width="1.17767" stroke-linecap="round"/>
    <path d="M22.5557 71.6882C25.0639 71.1289 23.2433 72.5304 26.983 69.7937" stroke="black" stroke-width="1.5123" stroke-linecap="round"/>
    <path d="M26.9829 69.7937C28.0947 68.4814 28.3523 68.8407 29.1324 67.1117" stroke="black" stroke-width="1.53647" stroke-linecap="round"/>
    <path d="M29.1326 67.1117C31.2441 64.3638 31.2237 64.3521 33.2407 61.535" stroke="black" stroke-width="1.27268" stroke-linecap="round"/>
    <path d="M33.2407 61.535C34.7064 57.9303 34.6922 59.4785 36.029 57.3419" stroke="black" stroke-width="1.33936" stroke-linecap="round"/>
    <path d="M36.0288 57.3419C36.6206 58.5608 36.7389 57.0256 37.3057 59.7256" stroke="black" stroke-width="1.71483" stroke-linecap="round"/>
    <path d="M37.3059 59.7256C37.8018 62.3676 38.3236 61.4558 39.4341 63.1315" stroke="black" stroke-width="1.53022" stroke-linecap="round"/>
    <path d="M39.4338 63.1315C42.7018 64.4704 41.9413 64.3046 45.5851 63.5995" stroke="black" stroke-width="1.29727" stroke-linecap="round"/>
</svg>
